<mxfile host="app.diagrams.net" modified="2023-06-22T17:16:45.568Z" agent="Mozilla/5.0 (Windows NT 10.0; Win64; x64) AppleWebKit/537.36 (KHTML, like Gecko) Chrome/114.0.0.0 Safari/537.36" version="21.5.0" etag="bahD3G4BNjTfevPRr76K" type="github">
  <diagram name="Page-1" id="GVJ5jzpFC1o_6qA65q75">
    <mxGraphModel>
      <root>
        <mxCell id="0" />
        <mxCell id="1" parent="0" />
      </root>
    </mxGraphModel>
  </diagram>
</mxfile>
